<svg height="512pt" viewBox="0 -92 512 512" width="512pt" xmlns="http://www.w3.org/2000/svg"><path d="m334.933594 36.238281c0 20.015625-16.226563 36.238281-36.238282 36.238281-20.015624 0-36.238281-16.222656-36.238281-36.238281s16.222657-36.238281 36.238281-36.238281c20.011719 0 36.238282 16.222656 36.238282 36.238281zm0 0" fill="#7ac1dd"/><path d="m512 252.683594v-75.929688c0-77.308594-63.253906-140.5625-140.558594-140.5625h-120.246094v216.492188zm0 0" fill="#ccf8ff"/><path d="m251.195312 201.886719v50.800781h260.804688v-75.933594c0-28.550781-8.625-55.183594-23.402344-77.421875-19.863281 28.21875-76.964844 78.5-237.402344 102.554688zm0 0" fill="#abebf4"/><path d="m416.996094 252.683594v-75.929688c0-77.308594-63.25-140.5625-140.558594-140.5625h-50.488281c-77.304688 0-140.558594 63.253906-140.558594 140.5625v75.929688zm0 0" fill="#ff929f"/><path d="m416.996094 176.753906c0-7.125-.535156-14.125-1.570313-20.972656-59.082031 28.757812-159.570312 55.453125-330.035156 59.203125v37.699219h331.605469zm0 0" fill="#ff737d"/><path d="m37.640625 327.964844h434.460937c22.035157 0 39.898438-17.863282 39.898438-39.902344v-35.375h-474.359375c-20.789063-.003906-37.640625 16.851562-37.640625 37.636719 0 20.789062 16.851562 37.640625 37.640625 37.640625zm0 0" fill="#8ed7e8"/><path d="m512 288.0625v-35.375h-197.40625c-20.789062 0-37.640625 16.851562-37.640625 37.636719 0 20.789062 16.851563 37.640625 37.640625 37.640625h157.503906c22.039063 0 39.902344-17.863282 39.902344-39.902344zm0 0" fill="#7ac1dd"/><path d="m455.648438 188.03125c0 15.046875 12.3125 27.359375 27.359374 27.359375h28.992188v-38.636719c0-5.4375-.3125-10.800781-.921875-16.078125h-28.070313c-15.046874 0-27.359374 12.308594-27.359374 27.355469zm0 0" fill="#898890"/><path d="m291.929688 174.03125c0 26.457031-21.449219 47.90625-47.910157 47.90625-26.457031 0-47.90625-21.449219-47.90625-47.90625 0-26.460938 21.449219-47.910156 47.90625-47.910156 26.460938 0 47.910157 21.449218 47.910157 47.910156zm0 0" fill="#eaeaea"/></svg>