<?xml version="1.0" encoding="iso-8859-1"?>
<!-- Generator: Adobe Illustrator 19.0.0, SVG Export Plug-In . SVG Version: 6.00 Build 0)  -->
<svg version="1.1" id="Capa_1" xmlns="http://www.w3.org/2000/svg" xmlns:xlink="http://www.w3.org/1999/xlink" x="0px" y="0px"
	 viewBox="0 0 512 512" style="enable-background:new 0 0 512 512;" xml:space="preserve">
<path style="fill:#EAEAEA;" d="M277.556,211.206h-43.112v293.157c0,4.217,3.419,7.637,7.637,7.637h27.839
	c4.217,0,7.637-3.419,7.637-7.637L277.556,211.206L277.556,211.206z"/>
<path style="opacity:0.12;enable-background:new    ;" d="M234.444,211.206v103.149c6.635,3.224,13.962,4.934,21.556,4.934
	c4.01,0,7.942-0.49,11.742-1.415v186.489c0,4.218-3.419,7.637-7.637,7.637h9.815c4.217,0,7.637-3.419,7.637-7.637V211.206H234.444z"
	/>
<path style="fill:#ED6EA4;" d="M256,301.567c-13.194,0-25.597-5.138-34.926-14.467L119.472,185.499
	c-42.433-42.435-42.849-111.301-0.927-153.514C139.028,11.359,166.314,0,195.377,0C217.309,0,238.243,6.476,256,18.524
	C273.756,6.476,294.691,0,316.623,0c29.063,0,56.349,11.359,76.832,31.984c41.922,42.214,41.507,111.08-0.927,153.514L290.926,287.1
	C281.597,296.429,269.193,301.567,256,301.567z"/>
<path style="opacity:0.1;fill:#FFFFFF;enable-background:new    ;" d="M256,47.654c10.43-10.429,22.878-17.608,36.087-21.54
	l-17.62-17.62c-6.446,2.724-12.631,6.069-18.467,10.029C239.823,7.546,221.005,1.213,201.202,0.17l30.358,30.358
	C240.408,34.646,248.699,40.353,256,47.654z M274.986,271.16c-10.486,10.486-27.486,10.486-37.972,0L135.412,169.558
	c-21.677-21.677-29.64-52.167-23.523-80.098L93.728,71.298c-13.76,38.424-5.143,83.313,25.744,114.201L221.074,287.1
	c9.329,9.329,21.733,14.467,34.926,14.467s25.597-5.138,34.926-14.467l9.302-9.302l-15.94-15.94L274.986,271.16z M398.557,132.585
	c-3.988,13.552-11.323,26.326-21.97,36.973l-3,2.999l15.94,15.941l3-2.999c10.427-10.427,18.311-22.452,23.659-35.284
	L398.557,132.585z"/>
<path style="fill:#ED6EA4;" d="M256,47.654c-33.553-33.552-87.996-33.481-121.46,0.215c-33.389,33.621-32.633,88.184,0.872,121.689
	L237.014,271.16c10.486,10.486,27.486,10.486,37.972,0l101.602-101.602c33.505-33.505,34.261-88.068,0.872-121.689
	C343.996,14.174,289.552,14.102,256,47.654z"/>
<path style="opacity:0.1;enable-background:new    ;" d="M256,47.654c-33.553-33.552-87.996-33.481-121.46,0.215
	c-33.389,33.621-32.633,88.184,0.872,121.689L237.014,271.16c10.486,10.486,27.486,10.486,37.972,0l101.602-101.602
	c33.505-33.505,34.261-88.068,0.872-121.689C343.996,14.174,289.552,14.102,256,47.654z"/>
<path style="opacity:0.12;enable-background:new    ;" d="M377.46,47.869c-13.092-13.183-29.396-21.219-46.404-24.108
	c9.863,4.213,19.099,10.356,27.126,18.438c33.389,33.621,32.633,88.184-0.872,121.689L255.708,265.49
	c-4.576,4.576-10.393,7.154-16.367,7.736c10.54,8.361,25.903,7.676,35.645-2.066l101.602-101.602
	C410.093,136.053,410.849,81.49,377.46,47.869z"/>
<g>
	<path style="fill:#394049;" d="M265.639,131.974c-3.571,0-6.891-1.098-9.639-2.974c-2.748,1.876-6.068,2.974-9.639,2.974
		c-9.451,0-17.139-7.688-17.139-17.139c0-4.143,3.358-7.5,7.5-7.5s7.5,3.357,7.5,7.5c0,1.18,0.96,2.139,2.139,2.139
		c1.18,0,2.139-0.959,2.139-2.139c0-4.143,3.358-7.5,7.5-7.5c4.143,0,7.5,3.357,7.5,7.5c0,1.18,0.959,2.139,2.139,2.139
		s2.14-0.959,2.14-2.139c0-4.143,3.357-7.5,7.5-7.5s7.5,3.357,7.5,7.5C282.778,124.285,275.09,131.974,265.639,131.974z"/>
	<path style="fill:#394049;" d="M324.317,116.18c-4.143,0-7.5-3.357-7.5-7.5v-5.001c0-4.143,3.357-7.5,7.5-7.5s7.5,3.357,7.5,7.5
		v5.001C331.817,112.822,328.46,116.18,324.317,116.18z"/>
	<path style="fill:#394049;" d="M187.683,116.18c-4.142,0-7.5-3.357-7.5-7.5v-5.001c0-4.143,3.358-7.5,7.5-7.5s7.5,3.357,7.5,7.5
		v5.001C195.183,112.822,191.825,116.18,187.683,116.18z"/>
</g>
<g>
	<path style="fill:#FFFFFF;" d="M193.249,137.359h-11.133c-4.142,0-7.5-3.357-7.5-7.5c0-4.143,3.358-7.5,7.5-7.5h11.133
		c4.142,0,7.5,3.357,7.5,7.5C200.749,134.002,197.391,137.359,193.249,137.359z"/>
	<path style="fill:#FFFFFF;" d="M329.884,137.359h-11.133c-4.143,0-7.5-3.357-7.5-7.5c0-4.143,3.357-7.5,7.5-7.5h11.133
		c4.143,0,7.5,3.357,7.5,7.5C337.384,134.002,334.026,137.359,329.884,137.359z"/>
</g>
<g>
</g>
<g>
</g>
<g>
</g>
<g>
</g>
<g>
</g>
<g>
</g>
<g>
</g>
<g>
</g>
<g>
</g>
<g>
</g>
<g>
</g>
<g>
</g>
<g>
</g>
<g>
</g>
<g>
</g>
</svg>
