<?xml version="1.0" encoding="iso-8859-1"?>
<!-- Generator: Adobe Illustrator 19.0.0, SVG Export Plug-In . SVG Version: 6.00 Build 0)  -->
<svg xmlns="http://www.w3.org/2000/svg" xmlns:xlink="http://www.w3.org/1999/xlink" version="1.1" id="Layer_1" x="0px" y="0px" viewBox="0 0 510.849 510.849" style="enable-background:new 0 0 510.849 510.849;" xml:space="preserve" width="512" height="512">
<g>
	<path d="M391.424,49.683c-2.929-2.929-7.678-2.929-10.606,0c-2.929,2.929-2.929,7.678,0,10.606l103.307,103.307   c1.955,1.955,1.955,5.137,0,7.091l-19.155,19.155c-1.955,1.955-5.136,1.955-7.091,0L310.662,42.626   c-1.955-1.955-1.955-5.136,0-7.091l19.155-19.155c1.955-1.955,5.136-1.955,7.091,0l22.697,22.697c2.929,2.929,7.678,2.929,10.606,0   c2.929-2.929,2.929-7.678,0-10.606c0,0-22.685-22.685-22.697-22.697c-7.704-7.704-20.613-7.692-28.304,0l-19.155,19.155   c-6.773,6.774-7.658,17.232-2.671,24.979L285.8,114.456c-7.306,40.71-25.945,77.897-54.051,108.014   c0,0-28.206-28.205-28.226-28.225c-8.374-8.374-22.403-8.363-30.763,0c-8.482,8.481-8.482,22.282,0,30.764l28.321,28.321   l-8.279,8.279c0,0-28.304-28.304-28.321-28.321c-8.383-8.383-22.393-8.369-30.763,0c-8.482,8.481-8.482,22.282,0,30.764   l28.321,28.321l-8.279,8.279c0,0-28.301-28.301-28.321-28.321c-8.388-8.388-22.384-8.38-30.764,0   c-8.481,8.481-8.481,22.282,0,30.763l28.321,28.321l-67.58,67.58c-7.875,7.875-16.343,8.598-25.31,9.363   c-1.816,0.155-3.695,0.315-5.535,0.538c-13.391,1.621-19.09,18.559-9.594,28.057c0,0,48.537,48.537,48.575,48.575   c9.514,9.514,26.437,3.791,28.056-9.593c0.223-1.84,0.384-3.719,0.539-5.535c0.766-8.967,1.489-17.436,9.366-25.313l38.119-38.119   c-1.111,5.749-1.667,11.646-1.619,17.631c0.186,23.272,9.331,45.131,25.749,61.549c11.98,11.981,27.078,20.198,43.66,23.762   c4.048,0.871,8.038-1.707,8.909-5.756c0.871-4.05-1.707-8.039-5.756-8.909c-13.752-2.956-26.271-9.77-36.206-19.704   c-13.617-13.617-21.202-31.751-21.356-51.063c-0.154-19.267,7.095-37.484,20.414-51.306l100.749-100.72   c13.845-13.061,31.976-20.107,51.105-19.868c19.17,0.249,37.173,7.832,50.693,21.351c28.497,28.497,28.497,74.865,0,103.363   l-98.243,98.242c-10.892,10.892-24.703,17.949-39.939,20.407c-4.089,0.66-6.869,4.51-6.21,8.599c0.648,4.02,4.59,6.853,8.599,6.21   c18.369-2.964,35.021-11.474,48.156-24.609l98.243-98.242c16.614-16.613,25.763-38.734,25.763-62.288s-9.149-45.675-25.763-62.288   c-16.301-16.301-38.001-25.443-61.105-25.743c-1.503-0.019-3.001,0.003-4.493,0.059c20.134-11.048,42.037-18.809,65.068-22.942   l64.546-11.584c3.201,2.07,6.927,3.19,10.829,3.19c5.346,0,10.372-2.082,14.152-5.862l19.155-19.155   c7.803-7.803,7.803-20.5,0-28.304L391.424,49.683z M183.367,204.851c2.609-2.609,6.946-2.605,9.55,0l6.824,6.824l-9.55,9.55   l-6.824-6.824C180.734,211.769,180.734,207.485,183.367,204.851z M200.797,231.833l9.551-9.551l10.891,10.891l-9.551,9.551   L200.797,231.833z M144.324,243.894c2.608-2.609,6.945-2.607,9.551,0l6.824,6.824l-9.551,9.551l-6.824-6.824   C141.691,250.812,141.691,246.528,144.324,243.894z M161.754,270.876l9.551-9.551l10.891,10.891l-9.551,9.551L161.754,270.876z    M105.282,282.937c2.611-2.611,6.943-2.606,9.55,0l6.824,6.824l-9.55,9.55c0,0-6.808-6.808-6.824-6.824   C102.677,289.883,102.685,285.534,105.282,282.937z M122.712,309.918l9.55-9.55l10.891,10.89l-9.55,9.55L122.712,309.918z    M77.2,469.123c-0.15,1.765-0.293,3.432-0.483,5.009c-0.151,1.239-1.731,1.617-2.559,0.789c0,0-48.575-48.575-48.576-48.576   c-0.843-0.844-0.441-2.41,0.791-2.557c1.577-0.191,3.244-0.333,5.009-0.484c8.56-0.73,18.876-1.612,28.916-8.819l25.723,25.723   C78.813,450.246,77.932,460.563,77.2,469.123z M383.399,199.94c-45.439,8.155-86.774,29.505-119.702,61.779L96.206,429.179   l-24.881-24.881l165.823-165.823c33.195-33.195,55.124-75.165,63.416-121.37l9.641-53.724l126.917,126.917L383.399,199.94z"/>
	<path d="M355.868,357.196c17.412-17.412,17.412-45.743,0-63.155c-17.411-17.411-45.738-17.412-63.155,0   c0,0-98.199,98.199-98.242,98.243c-17.198,17.198-17.184,45.971,0,63.155c17.085,17.084,45.922,17.234,63.155,0L355.868,357.196z    M219.931,388.037l41.942,41.941l-9.551,9.551l-41.941-41.942L219.931,388.037z M230.538,377.43l8.279-8.279l41.942,41.942   l-8.279,8.279L230.538,377.43z M277.86,330.108l41.942,41.942l-8.279,8.279l-41.942-41.942L277.86,330.108z M330.408,361.443   l-41.942-41.941l9.551-9.551l41.942,41.942L330.408,361.443z M291.365,400.486l-41.942-41.941l9.551-9.551l41.941,41.942   L291.365,400.486z M324.291,295.975c7.595,0,15.189,2.891,20.971,8.672c9.732,9.732,11.271,24.599,4.622,35.958l-40.581-40.581   C313.914,297.327,319.102,295.975,324.291,295.975z M205.077,444.832c-5.59-5.59-8.669-13.037-8.669-20.971   c0-5.359,1.41-10.495,4.045-14.988l40.581,40.581C229.676,456.103,214.809,454.564,205.077,444.832z"/>
</g>















</svg>
