<svg height="512pt" viewBox="-93 0 512 512.00027" width="512pt" xmlns="http://www.w3.org/2000/svg"><path d="m174.035156 511.84375c-84.410156 0-152.839844-68.425781-152.839844-152.839844v-158.589844h305.679688v158.589844c0 84.414063-68.429688 152.839844-152.839844 152.839844zm0 0" fill="#ffcbbe"/><path d="m135.824219 160.089844c-21.101563 0-38.210938 17.109375-38.210938 38.210937v66.910157c0 21.105468 17.109375 38.210937 38.210938 38.210937 21.105469 0 38.210937-17.105469 38.210937-38.210937v-66.910157c0-21.101562-17.109375-38.210937-38.210937-38.210937zm0 0" fill="#ffb2a6"/><path d="m212.246094 160.089844c-21.105469 0-38.210938 17.109375-38.210938 38.210937v66.910157c0 21.105468 17.105469 38.210937 38.210938 38.210937 21.101562 0 38.210937-17.105469 38.210937-38.210937v-66.910157c0-21.101562-17.109375-38.210937-38.210937-38.210937zm0 0" fill="#ff9e8f"/><path d="m144.695312 260.316406c-21.910156 16.808594-54.015624 36.511719-93.234374 46.292969-34.769532 8.671875-57.167969 42.714844-50.1875 77.863281 11.332031 57.058594 51.414062 131.683594 175.636718 127.347656 0 0 2.285156-74.441406-31.640625-119.679687-8.632812-11.511719-7.921875-27.503906 2.007813-37.917969 14.898437-15.617187 32.886718-40.160156 37.152344-70.675781 3.078124-22.035156-22.082032-36.769531-39.734376-23.230469zm0 0" fill="#ffddcf"/><g fill="#ffcbbe"><path d="m59.402344 0c-21.101563 0-38.207032 17.105469-38.207032 38.210938v162.203124h76.417969v-162.203124c0-21.105469-17.105469-38.210938-38.210937-38.210938zm0 0"/><path d="m288.664062 48.429688c-21.101562 0-38.207031 17.105468-38.207031 38.207031v162.207031h76.417969v-162.207031c0-21.101563-17.105469-38.207031-38.210938-38.207031zm0 0"/></g></svg>