<svg height="511pt" viewBox="1 -5 511.99875 511" width="511pt" xmlns="http://www.w3.org/2000/svg"><path d="m275.558594 447.394531c1.6875-1.996093 1.503906-4.925781-.347656-6.773437-.007813-.007813-.019532-.019532-.03125-.03125-16.707032-16.707032-16.707032-43.789063 0-60.496094 15.03125-15.03125 38.472656-16.535156 55.1875-4.507812 2.113281 1.523437 5.027343 1.203124 6.710937-.78125l21.296875-25.128907c30.226562-35.664062 28.046875-88.550781-5.011719-121.609375-33.058593-33.058594-85.945312-35.234375-121.609375-5.007812l-25.125 21.292968c-1.988281 1.683594-2.304687 4.597657-.785156 6.710938 12.027344 16.714844 10.527344 40.15625-4.507812 55.191406-16.703126 16.703125-43.789063 16.703125-60.492188 0-.011719-.011718-.023438-.023437-.035156-.035156-1.847656-1.851562-4.777344-2.035156-6.773438-.34375l-18.625 15.785156c-45.6875 38.722656-48.550781 108.214844-6.203125 150.5625 42.351563 42.351563 111.839844 39.488282 150.5625-6.203125zm0 0" fill="#b2785b"/><g fill="#935b45"><path d="m205.84375 251.0625c9.785156 13.597656 10.613281 31.648438 2.488281 46l50.753907-45.457031c30.03125-26.898438 73.648437-29.519531 106.316406-8.582031-3.414063-5.304688-7.414063-10.328126-12.039063-14.957032-33.058593-33.058594-85.945312-35.234375-121.609375-5.007812l-25.125 21.292968c-1.988281 1.683594-2.304687 4.597657-.785156 6.710938zm0 0"/><path d="m139.945312 358.320312 48.011719-43.003906c-15.605469 6.6875-34.375 3.675782-47.117187-9.0625-.007813-.011718-.019532-.023437-.03125-.035156-1.847656-1.851562-4.777344-2.035156-6.773438-.34375l-18.625 15.785156c-45.6875 38.722656-48.550781 108.214844-6.203125 150.5625 4.667969 4.667969 9.664063 8.785156 14.914063 12.355469-26.449219-39.285156-20.847656-93.414063 15.824218-126.257813zm0 0"/><path d="m284.183594 321.761719-24.515625-24.515625c-2.476563-2.476563-2.40625-6.515625.15625-8.902344l191.605469-178.492188 20.148437 20.148438-178.488281 191.605469c-2.390625 2.5625-6.429688 2.636719-8.90625.15625zm0 0"/></g><path d="m273.257812 301.777344 191.605469-178.492188-13.433593-13.433594-191.605469 178.492188c-2.5625 2.386719-2.632813 6.425781-.15625 8.902344l13.433593 13.433594c-2.476562-2.476563-2.40625-6.515626.15625-8.902344zm0 0" fill="#774839"/><path d="m488.554688 155.566406-12.808594-12.808594c-1.605469-1.605468-1.605469-4.214843 0-5.820312l16.414062-16.417969c1.609375-1.605469 4.21875-1.605469 5.824219 0l12.808594 12.808594c1.609375 1.609375 1.609375 4.214844 0 5.824219l-16.414063 16.414062c-1.609375 1.609375-4.21875 1.609375-5.824218 0zm0 0" fill="#444346"/><path d="m438.671875 105.683594-12.808594-12.808594c-1.609375-1.605469-1.609375-4.214844 0-5.824219l16.414063-16.414062c1.609375-1.605469 4.21875-1.605469 5.824218 0l12.808594 12.808593c1.609375 1.605469 1.609375 4.214844 0 5.824219l-16.414062 16.414063c-1.609375 1.609375-4.214844 1.609375-5.824219 0zm0 0" fill="#444346"/><path d="m447.550781 159.578125-25.699219-25.699219c-3.167968-3.167968-3.167968-8.300781 0-11.464844l42.136719-42.140624c3.167969-3.164063 8.300781-3.164063 11.46875 0l25.699219 25.703124c3.167969 3.164063 3.167969 8.296876 0 11.464844l-42.136719 42.136719c-3.167969 3.167969-8.300781 3.167969-11.46875 0zm0 0" fill="#b2785b"/><path d="m435.285156 135.847656 42.136719-42.140625c3.167969-3.164062 8.300781-3.164062 11.46875 0l-13.433594-13.433593c-3.167969-3.164063-8.300781-3.164063-11.46875 0l-42.136719 42.140624c-3.167968 3.164063-3.167968 8.296876 0 11.464844l13.433594 13.433594c-3.167968-3.164062-3.167968-8.300781 0-11.464844zm0 0" fill="#935b45"/><path d="m169.996094 443.425781c3.128906-2.449219 3.410156-7.085937.601562-9.894531l-22.699218-22.695312c-2.808594-2.8125-7.445313-2.53125-9.894532.601562l-41.46875 51.582031c-1.511718 1.882813-1.527344 4.570313-.011718 6.449219 2.265624 2.804688 4.699218 5.519531 7.308593 8.128906 2.613281 2.609375 5.328125 5.042969 8.128907 7.308594 1.878906 1.515625 4.570312 1.5 6.449218-.011719zm0 0" fill="#57565c"/><path d="m109.957031 482.902344c-1.515625-1.878906-1.5-4.566406.011719-6.449219l41.472656-51.582031c2.449219-3.128906 7.082032-3.414063 9.890625-.601563l-13.433593-13.433593c-2.808594-2.8125-7.445313-2.53125-9.894532.601562l-41.46875 51.582031c-1.511718 1.882813-1.527344 4.570313-.011718 6.449219 2.265624 2.804688 4.699218 5.519531 7.308593 8.128906 2.269531 2.265625 4.621094 4.394532 7.035157 6.398438-.304688-.363282-.613282-.726563-.910157-1.09375zm0 0" fill="#444346"/><path d="m67.382812 220.664062 25.1875 25.1875-30 30.003907-25.1875-25.1875zm0 0" fill="#b2785b"/><path d="m216.566406 431.027344c-1.921875 0-3.839844-.734375-5.304687-2.195313-3.808594-3.808593-5.90625-8.875-5.90625-14.261719 0-5.382812 2.097656-10.449218 5.90625-14.257812l44.609375-44.609375c.976562-.976563 1.515625-2.273437 1.515625-3.652344 0-1.378906-.539063-2.679687-1.515625-3.652343l-1.34375-1.347657c-2.925782-2.925781-2.925782-7.675781.003906-10.605469 2.929688-2.925781 7.675781-2.925781 10.605469.003907l1.34375 1.34375c3.808593 3.808593 5.902343 8.871093 5.902343 14.257812s-2.097656 10.449219-5.902343 14.257813l-44.613281 44.609375c-.976563.976562-1.511719 2.273437-1.511719 3.65625 0 1.378906.539062 2.675781 1.511719 3.652343 2.929687 2.925782 2.929687 7.675782 0 10.605469-1.464844 1.460938-3.382813 2.195313-5.300782 2.195313zm0 0" fill="#935b45"/><path d="m166.859375 376.066406c-5.164063 0-10.328125-1.964844-14.257813-5.898437-2.929687-2.925781-2.929687-7.675781 0-10.605469 2.929688-2.929688 7.675782-2.929688 10.605469 0 2.015625 2.015625 5.292969 2.015625 7.304688 0l44.609375-44.609375c3.808594-3.808594 8.875-5.90625 14.261718-5.90625 5.386719 0 10.449219 2.097656 14.257813 5.90625l1.34375 1.339844c2.929687 2.929687 2.929687 7.679687 0 10.609375-2.925781 2.929687-7.675781 2.929687-10.605469 0l-1.34375-1.34375c-.976562-.976563-2.273437-1.511719-3.652344-1.511719-1.378906 0-2.679687.535156-3.652343 1.511719l-44.613281 44.609375c-3.929688 3.933593-9.09375 5.898437-14.257813 5.898437zm0 0" fill="#935b45"/><path d="m7.5 288.046875c-1.917969 0-3.839844-.730469-5.304688-2.195313-2.925781-2.929687-2.925781-7.679687 0-10.605468l264.652344-264.652344c13.460938-13.460938 35.359375-13.460938 48.820313 0l6.078125 6.078125c2.929687 2.929687 2.929687 7.679687 0 10.609375-2.925782 2.925781-7.675782 2.925781-10.605469 0l-6.078125-6.082031c-7.609375-7.609375-19.996094-7.609375-27.609375 0l-264.648437 264.652343c-1.464844 1.464844-3.386719 2.195313-5.304688 2.195313zm0 0" fill="#444346"/><path d="m343.367188 34.542969-16.949219-16.949219c-1.542969-1.542969-4.046875-1.542969-5.589844 0l-270.050781 270.054688c-2.886719 2.882812-2.886719 7.5625 0 10.445312l12.089844 12.09375c2.882812 2.882812 7.5625 2.882812 10.449218 0l270.050782-270.054688c1.542968-1.542968 1.542968-4.046874 0-5.589843zm0 0" fill="#ffeb99"/></svg>