<svg viewBox="0 0 512 512.00024" xmlns="http://www.w3.org/2000/svg"><path d="m11.347656 500.652344c-15.128906-15.128906-15.128906-39.890625 0-55.019532l177.253906-177.253906c15.128907-15.128906 39.890626-15.128906 55.019532 0 15.132812 15.128906 15.132812 39.890625 0 55.019532l-177.253906 177.253906c-15.128907 15.128906-39.890626 15.128906-55.019532 0zm0 0" fill="#ffeb99"/><path d="m243.621094 268.378906c-15.128906-15.132812-39.890625-15.132812-55.019532 0l-103.285156 103.285156c6.871094 10.769532 15.042969 21.019532 24.519532 30.5 9.476562 9.476563 19.730468 17.648438 30.5 24.519532l103.285156-103.285156c15.132812-15.132813 15.132812-39.890626 0-55.019532zm0 0" fill="#ffde55"/><path d="m165.570312 230.378906c19.210938 19.210938 33.316407 64.460938 14.105469 83.671875-19.207031 19.210938-64.460937 5.101563-83.671875-14.105469-19.207031-19.210937-12.421875-43.570312 6.785156-62.78125 19.210938-19.210937 43.570313-25.996093 62.78125-6.785156zm0 0" fill="#9ff6ff"/><path d="m162.007812 261.816406c9.546876 9.546875 19.871094 35.347656 10.328126 44.890625-9.546876 9.546875-35.347657-.78125-44.890626-10.324219-9.542968-9.546874-9.542968-25.019531 0-34.566406 9.542969-9.542968 25.019532-9.542968 34.5625 0zm0 0" fill="#7de7ff"/><path d="m281.621094 346.429688c-19.210938-19.210938-64.460938-33.316407-83.671875-14.109376-19.210938 19.210938-5.101563 64.464844 14.105469 83.675782 19.210937 19.207031 43.570312 12.421875 62.78125-6.789063 19.210937-19.207031 25.996093-43.566406 6.785156-62.777343zm0 0" fill="#9ff6ff"/><path d="m250.183594 349.992188c-9.546875-9.546876-35.347656-19.871094-44.890625-10.328126-9.546875 9.542969.78125 35.34375 10.324219 44.890626 9.546874 9.542968 25.019531 9.542968 34.566406 0 9.542968-9.546876 9.542968-25.019532 0-34.5625zm0 0" fill="#7de7ff"/><path d="m227.71875 323.1875c0 21.484375-17.417969 38.902344-38.90625 38.902344-21.484375 0-38.902344-17.417969-38.902344-38.902344 0-21.488281 17.417969-38.90625 38.902344-38.90625 21.488281 0 38.90625 17.417969 38.90625 38.90625zm0 0" fill="#ccf8ff"/><path d="m512 184.832031c0 102.078125-82.753906 184.828125-184.832031 184.828125s-184.832031-82.75-184.832031-184.828125c0-102.082031 82.753906-184.832031 184.832031-184.832031s184.832031 82.75 184.832031 184.832031zm0 0" fill="#ffc2e1"/><path d="m283.664062 97.664062c44.066407-43.808593 108.269532-62.160156 166.722657-50.605468-72.570313-65.011719-184.179688-62.660156-253.914063 7.078125-72.179687 72.179687-72.179687 189.207031 0 261.390625 26.882813 26.882812 59.992188 43.753906 94.679688 50.613281-2.542969-2.28125-134.300782-142.421875-7.488282-268.476563zm0 0" fill="#ffabcd"/><path d="m327.167969 184.832031c124.601562-41.800781 130.695312-130.695312 130.695312-130.695312-48.371093-48.371094-116.882812-64.324219-178.539062-47.863281 79.910156 56.160156 47.84375 178.558593 47.84375 178.558593zm0 0" fill="#ffabcd"/><path d="m450.386719 47.058594c-47.789063-42.796875-112.53125-56.414063-171.0625-40.785156 23.109375 16.238281 36.949219 38.308593 44.8125 61.066406 38.789062-21.75 83.679687-28.691406 126.25-20.28125zm0 0" fill="#ff8fb4"/><path d="m327.167969 184.832031c-98.5-87.007812-178.570313-47.824219-178.570313-47.824219-17.703125 66.078126 2.789063 133.351563 47.875 178.519532 8.683594-97.285156 130.695313-130.695313 130.695313-130.695313zm0 0" fill="#ffabcd"/><path d="m251.449219 138.273438c-61.382813-21.863282-102.851563-1.265626-102.851563-1.265626-17.703125 66.078126 2.792969 133.351563 47.875 178.519532 2.683594-30.097656 16.382813-54.257813 33.792969-73.03125-4.160156-28.835938-1.667969-66.234375 21.183594-104.222656zm0 0" fill="#ff8fb4"/><path d="m327.167969 184.832031c-26.101563 128.808594 47.871093 178.554688 47.871093 178.554688 66.078126-17.703125 114.117188-69.085938 130.695313-130.714844-88.59375 41.125-178.566406-47.839844-178.566406-47.839844zm0 0" fill="#ffabcd"/></svg>