<svg height="512pt" viewBox="-11 0 512 512" width="512pt" xmlns="http://www.w3.org/2000/svg"><g fill="#ffe76c"><path d="m44.390625 408.867188c-12.019531 12.019531-25.253906 11.066406-36.308594 12.40625-7.640625.925781-10.789062 10.328124-5.347656 15.769531l50.039063 50.042969c5.441406 5.441406 14.84375 2.289062 15.769531-5.351563 1.339843-11.050781.386719-24.289063 12.40625-36.308594l-6.089844-30.464843zm0 0"/><path d="m84.835938 278.378906c-5.734376 5.734375-5.734376 15.03125 0 20.765625l12.492187 12.492188 18-2.765625 2.765625-18-12.492188-12.492188c-5.734374-5.734375-15.03125-5.734375-20.765624 0zm0 0"/><path d="m165.277344 197.9375c5.734375-5.734375 15.03125-5.734375 20.765625 0l12.492187 12.492188-2.765625 18-18 2.765624-12.492187-12.492187c-5.734375-5.734375-5.734375-15.03125 0-20.765625zm0 0"/><path d="m125.054688 238.15625c-5.734376 5.734375-5.734376 15.03125 0 20.765625l12.496093 12.492187 17.996094-2.765624 2.769531-17.996094-12.496094-12.496094c-5.734374-5.734375-15.027343-5.734375-20.765624 0zm0 0"/></g><path d="m97.324219 311.636719 20.765625-20.765625 157.429687 157.429687-20.765625 20.761719zm0 0" fill="#ffb44d"/><path d="m137.546875 271.417969 20.765625-20.765625 157.425781 157.425781-20.765625 20.765625zm0 0" fill="#ffb44d"/><path d="m177.769531 231.195312 20.761719-20.765624 157.429688 157.429687-20.765626 20.761719zm0 0" fill="#ffb44d"/><path d="m233.980469 245.875-28.253907 13.277344 84.210938 84.210937 20.765625-20.765625zm0 0" fill="#e7a25d"/><path d="m229.203125 321.539062-19.847656 21.683594 40.363281 40.363282 20.765625-20.765626zm0 0" fill="#e7a25d"/><path d="m146.050781 318.828125-13.277343 28.253906 76.722656 76.722657 20.765625-20.765626zm0 0" fill="#e7a25d"/><path d="m257.214844 269.105469-68.855469 32.351562-32.351563 68.855469c-32.371093 32.371094-32.371093 85.042969 0 117.410156 32.367188 32.371094 85.039063 32.371094 117.40625 0l101.210938-101.207031c32.367188-32.371094 32.367188-85.039063 0-117.410156-32.371094-32.367188-85.042969-32.367188-117.410156 0zm85.769531 85.773437-101.207031 101.207032c-14.925782 14.925781-39.210938 14.925781-54.132813 0-14.925781-14.925782-14.925781-39.210938 0-54.136719l101.207031-101.207031c14.925782-14.925782 39.207032-14.921876 54.132813 0 14.925781 14.925781 14.925781 39.210937 0 54.136718zm0 0" fill="#ffe76c"/><path d="m296.414062 41.738281-12.542968 69.902344c-8.222656 45.816406-30.273438 88.019531-63.1875 120.933594l-176.292969 176.292969 36.558594 36.554687 176.289062-176.289063c32.917969-32.914062 75.117188-54.964843 120.9375-63.1875l69.898438-12.546874-56.847657-94.808594zm0 0" fill="#ffb44d"/><path d="m289.765625 78.796875 121.253906 121.253906 37.054688-6.652343-56.847657-94.808594-94.8125-56.851563zm0 0" fill="#e7a25d"/><path d="m316.148438 3.777344-19.734376 19.730468c-5.035156 5.035157-5.035156 13.199219 0 18.230469l151.660157 151.660157c5.035156 5.035156 13.195312 5.035156 18.230469 0l19.734374-19.730469c5.035157-5.035157 5.035157-13.199219 0-18.230469l-151.660156-151.660156c-5.035156-5.035156-13.195312-5.035156-18.230468 0zm0 0" fill="#ffe76c"/></svg>